<svg width="363" height="392" viewBox="0 0 363 392" fill="none" xmlns="http://www.w3.org/2000/svg">
<path d="M178.509 1.64679C171.71 5.33714 150.046 17.0043 145.273 19.5592C142.463 21.0637 135.513 24.7824 129.863 27.8482C120.013 33.1567 106.416 40.4806 76.9872 56.3207C69.5241 60.3516 56.8642 67.1646 48.8875 71.4511C40.9108 75.7375 26.9213 83.2602 17.7663 88.1712C8.64142 93.0822 0.966872 97.2551 0.785583 97.4538C0.483436 97.7093 0.362577 118.432 0.181288 195.73L0 293.695L6.16381 297.045C9.54786 298.89 16.1649 302.495 20.8482 305.021C25.5617 307.576 33.2967 311.806 38.0706 314.389C42.8747 317.001 50.0961 320.947 54.175 323.161C58.254 325.375 63.9042 328.441 66.7142 329.974C69.5544 331.507 75.1743 334.573 79.2533 336.787C83.3323 339.001 89.7982 342.493 93.6053 344.593C97.4426 346.666 102.609 349.476 105.087 350.838C107.595 352.201 114.03 355.721 119.439 358.645C124.847 361.569 132.582 365.799 136.661 368.013C140.74 370.227 148.475 374.457 153.884 377.381C159.292 380.304 167.541 384.818 172.224 387.344C176.907 389.899 180.865 392 181.017 392C181.168 392 184.28 390.382 187.906 388.423C191.531 386.464 196.487 383.796 198.904 382.519C201.321 381.213 208.452 377.381 214.766 373.974C221.081 370.568 231.294 365.089 237.427 361.768C243.591 358.446 256.553 351.463 266.283 346.24C276.012 341.016 289.608 333.693 296.497 329.974C322.119 316.178 342.545 305.163 352.244 299.969C357.712 297.016 362.305 294.518 362.396 294.405C362.517 294.291 362.698 250.12 362.788 196.241L363 98.277L357.622 95.3531C351.307 91.9183 338.586 85.0202 326.621 78.4911C321.938 75.9646 313.69 71.4511 308.281 68.5272C302.873 65.6033 295.138 61.3736 291.059 59.1594C280.544 53.4252 267.249 46.2148 259.333 41.8999C255.587 39.8844 248.728 36.1373 244.075 33.6108C239.422 31.0844 231.203 26.5992 225.795 23.6753C220.386 20.7514 212.651 16.5217 208.572 14.3075C185.639 1.81712 182.225 -0.0280563 181.893 0.000330914C181.681 0.000330914 180.171 0.7384 178.509 1.64679ZM173.433 62.3388C173.312 84.0266 173.131 119.709 173.01 141.681C172.889 165.725 172.708 181.65 172.556 181.65C172.375 181.65 168.357 179.521 163.613 176.938C158.839 174.326 151.95 170.579 148.294 168.592C144.638 166.605 137.235 162.574 131.827 159.65C126.419 156.726 119.016 152.695 115.36 150.708C111.704 148.721 104.845 145.002 100.101 142.419C87.8645 135.777 73.1499 127.771 63.9948 122.804C59.6741 120.476 52.3319 116.473 47.6789 113.947C43.0258 111.42 36.3181 107.758 32.783 105.856C29.2781 103.926 26.3775 102.28 26.3775 102.194C26.3775 102.081 28.1904 101.059 30.396 99.8667C34.052 97.908 55.0211 86.6382 83.1812 71.4511C99.5878 62.5942 119.197 52.0626 139.381 41.1902C149.11 35.967 160.652 29.7218 165.063 27.3373C169.475 24.9527 173.191 22.994 173.342 22.994C173.523 22.9656 173.554 38.6922 173.433 62.3388ZM199.236 27.7347C203.798 30.2044 211.594 34.4341 216.579 37.1593C228.152 43.4612 240.449 50.1322 248.909 54.7594C252.565 56.7465 259.968 60.7775 265.376 63.7013C270.785 66.6536 278.52 70.8549 282.599 73.0691C289.639 76.9014 298.038 81.4718 316.288 91.3789C320.79 93.8202 327.135 97.2835 330.428 99.0719C333.692 100.832 336.381 102.365 336.381 102.45C336.381 102.62 332.392 104.806 316.288 113.549C311.303 116.246 303.296 120.589 298.461 123.201C293.657 125.784 285.711 130.099 280.846 132.711C272.658 137.168 267.975 139.694 246.341 151.418C241.929 153.803 234.738 157.72 230.327 160.104C225.916 162.489 218.997 166.236 214.918 168.45C202.137 175.377 191.229 181.281 190.474 181.65L189.749 181.991L189.96 160.615C190.051 148.835 190.202 121.186 190.292 99.1854C190.444 61.5723 190.746 23.2495 190.897 23.2495C190.927 23.2495 194.674 25.265 199.236 27.7347ZM345.506 246.856L345.294 275.584L340.158 272.802C337.348 271.297 330.126 267.38 324.144 264.115C311.937 257.501 301.12 251.597 290.152 245.664C286.073 243.449 278.882 239.532 274.138 236.949C264.651 231.811 251.417 224.629 239.996 218.412C235.917 216.198 228.514 212.167 223.529 209.47C218.543 206.773 210.99 202.657 206.76 200.386C202.529 198.087 199.055 196.043 199.055 195.844C199.055 195.674 202.65 193.545 207.062 191.189C211.473 188.804 219.148 184.631 224.133 181.934C238.787 173.986 250.571 167.627 257.671 163.766C261.327 161.779 268.398 157.975 273.383 155.25C278.368 152.553 286.134 148.352 290.605 145.939C309.188 135.862 329.552 124.847 338.798 119.823L345.596 116.133L345.657 167.145C345.717 195.191 345.627 231.044 345.506 246.856ZM23.4769 119.312C28.7947 122.179 38.2519 127.317 56.7433 137.366C61.7287 140.091 69.1313 144.094 73.2103 146.308C87.1091 153.859 106.447 164.363 122.309 172.992C137.779 181.395 146.813 186.306 156.059 191.33C160.531 193.743 164.157 195.759 164.157 195.844C164.157 195.929 160.168 198.115 155.304 200.755C150.469 203.367 142.886 207.454 138.474 209.839C134.063 212.223 126.328 216.425 121.252 219.178C116.176 221.932 108.501 226.076 104.18 228.433C93.1823 234.394 80.1899 241.434 70.7932 246.515C66.3818 248.9 59.4022 252.704 55.2326 254.946C43.6905 261.192 29.5802 268.828 23.2654 272.263C20.123 273.937 17.4339 275.328 17.2526 275.328C17.0109 275.328 16.9807 266.273 17.1015 242.91C17.2224 225.083 17.3131 189.315 17.3131 163.426C17.3131 128.424 17.4037 116.36 17.6454 116.36C17.8569 116.36 20.4554 117.694 23.4769 119.312ZM199.81 215.091C204.554 217.674 211.413 221.393 215.069 223.38C218.725 225.367 226.127 229.398 231.536 232.322C236.944 235.246 244.407 239.305 248.154 241.349C251.9 243.364 258.759 247.111 263.412 249.638C275.679 256.309 290.031 264.115 299.217 269.083C306.468 273.029 313.418 276.805 330.187 285.917C333.359 287.62 336.169 289.181 336.471 289.38C336.925 289.692 335.082 290.771 322.724 297.414C297.374 311.04 276.163 322.451 260.24 331.024C196.517 365.344 189.144 369.29 189.023 369.205C188.872 369.063 189.507 231.498 189.718 219.774L189.9 209.782L190.564 210.094C190.897 210.265 195.066 212.507 199.81 215.091ZM172.526 244.017C172.405 262.724 172.224 298.379 172.103 323.218C172.013 348.085 171.801 368.439 171.68 368.439C171.559 368.439 169.867 367.559 167.903 366.48C165.909 365.401 160.38 362.392 155.546 359.78C141.677 352.258 130.165 345.984 122.158 341.613C118.079 339.398 110.344 335.169 104.936 332.245C99.5274 329.321 91.7924 325.091 87.7134 322.877C83.6344 320.663 76.2318 316.632 71.2464 313.935C66.2609 311.238 59.795 307.718 56.8944 306.129C53.9938 304.539 48.8875 301.757 45.5638 299.969C34.6865 294.064 26.2264 289.465 26.1358 289.38C26.0149 289.295 30.7284 286.655 39.5209 281.914C47.7393 277.514 60.7619 270.446 72.1528 264.257C77.1383 261.561 85.2056 257.189 90.0702 254.577C94.9045 251.937 102.942 247.594 107.897 244.897C112.822 242.229 120.345 238.169 124.575 235.87C128.805 233.571 135.876 229.738 140.287 227.354C144.698 224.969 151.89 221.052 156.301 218.696C160.712 216.311 166.09 213.387 168.236 212.195C170.411 211.003 172.285 210.038 172.436 210.038C172.617 210.038 172.647 223.55 172.526 244.017Z" fill="black"/>
</svg>
